<svg xmlns="http://www.w3.org/2000/svg" xmlns:xlink="http://www.w3.org/1999/xlink" width="126" height="110" viewBox="0 0 126 110">
    <defs>
        <path id="a" d="M4.683 38.852h7.263v-6.31H4.683v6.31zm0-7.528h7.263V27.35H4.683v3.974zm8.51 7.528h7.263v-10.69h-7.263v10.69zm0-11.907h7.263v-5.002h-7.263v5.002zm8.51 11.907h7.263V24.347h-7.262v14.505zm0-15.723h7.263v-7.474h-7.262v7.474zm8.51 15.723h7.262V18.835h-7.261v20.017zm0-21.235h7.262V8.871h-7.261v8.746zm8.51 21.235h7.262v-25.67h-7.262v25.67zm0-26.888h7.262V1.476h-7.262v10.488zM3.465 39.46v-12.72c0-.336.273-.609.61-.609h7.9v-4.798a.61.61 0 0 1 .61-.609h7.901v-5.68c0-.335.273-.608.608-.608h7.902V8.262c0-.336.273-.609.61-.609h7.9V.867c0-.336.272-.609.61-.609h8.479a.61.61 0 0 1 .61.61V39.46a.61.61 0 0 1-.61.609h-8.48l-.016-.002-.014.002h-8.48l-.015-.002-.016.002h-8.48l-.014-.002-.016.002h-8.48l-.014-.002-.016.002h-8.48a.609.609 0 0 1-.609-.609zm44.69 3.742H2.29c-1.23 0-2.232-1-2.232-2.23V18.126a.609.609 0 1 1 1.218 0v22.847c0 .558.455 1.012 1.014 1.012h45.864a.609.609 0 1 1 0 1.218zM28.212 64.946a5.309 5.309 0 0 0-4.655-4.655v4.655h4.655zm0 1.218h-5.265a.608.608 0 0 1-.608-.608V60.29a5.306 5.306 0 0 0-4.69 5.265 5.304 5.304 0 0 0 5.298 5.298 5.304 5.304 0 0 0 5.265-4.69zm1.253-.608a6.525 6.525 0 0 1-6.518 6.517 6.524 6.524 0 0 1-6.516-6.517 6.524 6.524 0 0 1 6.516-6.518 6.525 6.525 0 0 1 6.518 6.518zm11.432 32.687l-3.874-4.673v2.838l3.874 1.835zM60.665 87.5l-5.248-6.329a2.155 2.155 0 0 0-3.03-.284 2.156 2.156 0 0 0-.283 3.027l.002.003.176.211a.61.61 0 0 1-.468.998.606.606 0 0 1-.47-.22l-.528-.638a2.15 2.15 0 0 0-3.311 2.746l.529.637a.608.608 0 0 1-.937.777l-.528-.636-.001-.001-.001-.003-.352-.423a2.157 2.157 0 0 0-3.029-.283 2.137 2.137 0 0 0-.767 1.456c-.054.569.118 1.125.482 1.568l.004.004.881 1.062a.608.608 0 1 1-.937.778l-.872-1.053-.01-.01-7.61-9.177a2.156 2.156 0 0 0-3.03-.284 2.155 2.155 0 0 0-.28 3.03L43.59 99.58a.61.61 0 0 1-.73.94l-7.417-3.515a2.14 2.14 0 0 0-1.643-.081 2.138 2.138 0 0 0-1.22 1.104 2.156 2.156 0 0 0 1.024 2.866.609.609 0 0 1 .078.044c.079.053 7.975 5.312 14.728 6.83 1.336.283 2.702.347 4.059.19a12.482 12.482 0 0 0 6.55-2.802c5.321-4.413 6.06-12.334 1.646-17.658zM31.479 97.51c.19-.4.451-.752.767-1.043H10.112l-.008 4.02c0 .429.246.727.465.727h21.462a3.374 3.374 0 0 1-.552-3.704zm-.999-11.83v2.976h2.405v-.077l-2.405-2.9zm.07-5.191a3.354 3.354 0 0 1 2.335-.765v-6.18H30.48v7.01l.07-.065zm3.552-7.127v6.662c.447.205.858.506 1.193.909l.512.617V55.792H10.143l.002 22.516-.03 16.94h25.692v-3.146l-2.063-2.488a1.02 1.02 0 0 1-.677.258h-2.77c-.571 0-1.035-.463-1.035-1.034V73.361c0-.57.464-1.035 1.034-1.035h2.771c.57 0 1.035.465 1.035 1.035zM10.104 52.148l.04.82v1.606h25.663v-2.426c0-.428-.246-.726-.465-.726H10.569c-.219 0-.465.298-.465.726zm51.498 34.574c4.843 5.84 4.033 14.532-1.806 19.372a13.704 13.704 0 0 1-8.775 3.167c-.962 0-1.922-.1-2.868-.301l-.007-.001c-5.83-1.31-12.252-5.165-14.402-6.529H10.569c-.927 0-1.682-.872-1.682-1.944v-3.972l.001-.653v-.003-.002l.039-17.55v-25.31l-.039-.82c-.001-1.1.754-1.972 1.681-1.972h24.773c.927 0 1.682.872 1.682 1.944v30.87l4.225 5.095a3.369 3.369 0 0 1 4.543-2.51 3.345 3.345 0 0 1 1.219-2.557 3.37 3.37 0 0 1 3.384-.54 3.36 3.36 0 0 1 1.215-2.557 3.372 3.372 0 0 1 4.744.444l5.248 6.329zM18.62 88.655h2.492V76.647H18.62v12.008zm3.71-12.19v12.373c0 .57-.464 1.034-1.035 1.034h-2.858c-.57 0-1.034-.463-1.034-1.034V76.464c0-.57.463-1.035 1.034-1.035h2.858c.57 0 1.034.465 1.034 1.035zm-9.356 12.19h2.206v-7.688h-2.206v7.688zm3.424-7.872v8.055c0 .57-.465 1.034-1.034 1.034H12.79c-.569 0-1.034-.463-1.034-1.034v-8.055c0-.57.465-1.033 1.034-1.033h2.574c.57 0 1.034.463 1.034 1.033zm8.39 7.872h2.21v-9.712h-2.21v9.712zm3.427-9.896v10.08c0 .57-.463 1.033-1.034 1.033h-2.576c-.57 0-1.034-.463-1.034-1.034V78.76c0-.57.463-1.033 1.034-1.033h2.576c.57 0 1.034.463 1.034 1.033zm-3.891 19.499a.609.609 0 0 1 0 1.218h-3.383a.61.61 0 0 1 0-1.218h3.383zm64.857-77.493a48.898 48.898 0 0 0-1.48-1.895.61.61 0 0 1 .942-.773 49.87 49.87 0 0 1 1.516 1.943.61.61 0 0 1-.978.725zm-31.823-19A.61.61 0 0 1 57.53.559c1.503.215 3.013.502 4.486.853a.61.61 0 0 1-.282 1.185 48.28 48.28 0 0 0-4.376-.832zm16.774 5.703a.608.608 0 1 1 .599-1.06c1.32.745 2.62 1.561 3.868 2.426a.61.61 0 0 1-.695 1 48.448 48.448 0 0 0-3.772-2.366zm10.584 8.092a48.77 48.77 0 0 0-3.273-3.02.608.608 0 1 1 .782-.932c1.16.975 2.29 2.017 3.357 3.095a.608.608 0 0 1-.433 1.037.607.607 0 0 1-.433-.18zM66.012 3.832a.61.61 0 0 1 .393-1.153 49.49 49.49 0 0 1 4.25 1.67.61.61 0 1 1-.499 1.112 47.873 47.873 0 0 0-4.144-1.629zm-15.494-2.55a.609.609 0 0 1 0-1.217c.818 0 1.646.02 2.465.06a.608.608 0 1 1-.06 1.216c-.797-.039-1.608-.059-2.405-.059zM71.43 92.704a.61.61 0 0 1 .53 1.096c-.735.355-1.49.697-2.247 1.017a.609.609 0 1 1-.474-1.122 48.733 48.733 0 0 0 2.19-.991zm13.175-9.394a.61.61 0 0 1 .863.86 50.22 50.22 0 0 1-3.06 2.826.607.607 0 0 1-.859-.07.61.61 0 0 1 .071-.86 48.88 48.88 0 0 0 2.985-2.756zm-6.19 5.252a.61.61 0 0 1 .707.992 49.952 49.952 0 0 1-3.489 2.273.612.612 0 0 1-.834-.213.609.609 0 0 1 .213-.834 48.24 48.24 0 0 0 3.403-2.218zm11.287-10.244c.268.203.32.585.117.853a50.529 50.529 0 0 1-1.539 1.925.608.608 0 1 1-.933-.783 48.144 48.144 0 0 0 1.502-1.88.607.607 0 0 1 .853-.115zM1.902 52.42l-.03.001a.608.608 0 0 1-.607-.579 49.028 49.028 0 0 1-.06-2.464.609.609 0 1 1 1.217 0c0 .797.02 1.606.058 2.405a.608.608 0 0 1-.578.637zm1.134 4.665c.282 1.75.664 3.5 1.139 5.204A.61.61 0 1 1 3 62.616a49.348 49.348 0 0 1-1.168-5.337.61.61 0 0 1 1.203-.193zm3.802 12.456a.608.608 0 1 1-1.104.51 49.138 49.138 0 0 1-.978-2.262.61.61 0 0 1 1.13-.455c.298.742.62 1.484.952 2.207zM103.19 42.39l-2.636-.02v15.814h2.636V42.39zm1.419-.716V58.91a.69.69 0 0 1-.688.693h-4.098a.69.69 0 0 1-.688-.693V41.645c0-.185.073-.362.203-.492a.685.685 0 0 1 .485-.202h.005l4.098.03a.69.69 0 0 1 .683.693zm-1.825-5.588l-.405.135.165.27.24-.405zm2.304-1.534c.17.239.172.558.004.798l-2.022 2.893a.694.694 0 0 1-.564.296h-.006a.694.694 0 0 1-.562-.286l-.362-.5-7.755 4.455a.687.687 0 0 1-.527.068l-7.953-2.14-7.997 6.145a.692.692 0 0 1-.973-.126.691.691 0 0 1 .126-.97l8.27-6.354a.69.69 0 0 1 .603-.12l8.008 2.154 7.381-4.24-.218-.301a.693.693 0 0 1 .374-1.072l3.42-.964a.694.694 0 0 1 .753.264zm-18.32 9.863l-2.838-.017v13.786h2.838V44.415zm1.217-.723v15.216a.691.691 0 0 1-.688.695H83.2a.691.691 0 0 1-.688-.695v-15.24l1.908-.69 2.883.02a.691.691 0 0 1 .683.694zm7.095 5.988l-2.838-.011v8.515h2.838V49.68zm1.42-.717v9.944c0 .384-.32.696-.713.696h-4.25a.705.705 0 0 1-.714-.696v-9.962c0-.184.076-.362.21-.492a.722.722 0 0 1 .503-.203h.003l4.25.017c.393.002.71.313.71.696zm-18.246.717l-2.636-.011v8.515h2.636V49.68zm1.419-.717v9.944a.692.692 0 0 1-.688.696h-4.098a.692.692 0 0 1-.688-.696v-9.962a.7.7 0 0 1 .203-.492.683.683 0 0 1 .485-.203h.003l4.099.017a.692.692 0 0 1 .684.696zm-18.16 20.979a.702.702 0 0 1-.694-.71c0-.391.31-.71.694-.71h56.795c.384 0 .695.319.695.71 0 .392-.31.71-.695.71H61.513zm1.014-2.027a.702.702 0 0 1-.694-.71c0-.392.31-.71.694-.71h54.97c.384 0 .695.318.695.71 0 .392-.311.71-.694.71h-54.97zm53.03-34.553a.318.318 0 0 0-.319-.317H64.584a.318.318 0 0 0-.319.317V61.11c0 .175.143.317.319.317h50.654a.318.318 0 0 0 .318-.317V33.362zm1.418-.036v27.82c0 .938-.764 1.7-1.703 1.7H64.55c-.94 0-1.705-.762-1.705-1.7v-27.82c0-.937.765-1.7 1.705-1.7h50.72c.94 0 1.704.763 1.704 1.7zm-61.417 40c.025.062.073.062.09.062h26.127l.746-2.217a.679.679 0 0 1 .07-.147.963.963 0 0 1 .82-.45h13.082c.334 0 .64.168.818.45.03.046.053.095.07.147l.747 2.217h26.043c.022 0 .068 0 .093-.06.026-.06-.008-.096-.024-.11a.652.652 0 0 1-.074-.088l-5.34-7.445H60.839l-5.179 7.437a.684.684 0 0 1-.08.096c-.016.015-.048.047-.022.109zm5.87-9.06h57.17V32.438a2.842 2.842 0 0 0-2.837-2.84H64.256a2.838 2.838 0 0 0-2.829 2.84v31.826zm35.274 9.122l-.483-1.419H83.805l-.483 1.42h13.38zM54.516 72.32l5.414-7.841V32.475c0-1.62.916-3.027 2.257-3.735a4.183 4.183 0 0 1 2.09-.56h51.525a4.228 4.228 0 0 1 4.225 4.222v32.475l-.001.021 5.274 7.418a1.48 1.48 0 0 1 .278 1.576c-.23.556-.77.915-1.375.915H55.616c-.603 0-1.142-.36-1.373-.918a1.482 1.482 0 0 1 .273-1.569z"/>
    </defs>
    <g fill="none" fill-rule="evenodd">
        <mask id="b" fill="#fff">
            <use xlink:href="#a"/>
        </mask>
        <path fill="#FFF" d="M-227.463 296.303H868.856V-68.611h-1096.32z" mask="url(#b)"/>
    </g>
</svg>
