<svg xmlns="http://www.w3.org/2000/svg" width="104" height="32" viewBox="0 0 104 32">
    <g fill="#FFF" fill-rule="evenodd">
        <path d="M2.948 19.868l2.76-6.629 2.81 6.59-5.57.04zm9.265 2.596c-.062.042-.207.147-.456.15-.457.002-.605-.33-.901-1.013L5.698 9.769.084 23.063a.704.704 0 1 0 1.3.542l.991-2.402 6.713-.048.4.934c.317.725.59 1.16.925 1.448.313.268.71.431 1.187.428.416-.003.79-.13 1.017-.298l.075-.064-.409-1.198-.07.06zM20.393 17.647c.255-2.101 1.764-3.317 3.801-3.331 1.933-.014 3.437 1.077 3.702 3.278l-7.503.053zm3.75-4.661c-3.117.022-5.304 2.386-5.282 5.524.024 3.45 2.72 5.385 5.629 5.365 1.683-.012 3.632-.67 4.662-2.07v-.104l-.942-.783h-.103c-.824 1.066-2.359 1.618-3.668 1.627-2.016.014-3.854-1.262-4.058-3.65l9-.064c.02-.146.039-.354.037-.645-.02-2.868-2.136-5.222-5.275-5.2zM17.342 22.511a.466.466 0 0 1-.352.148c-.416.003-.481-.412-.485-1.015l-.08-11.223a.727.727 0 1 0-1.454.01l.082 11.66c.007 1.018.532 1.846 1.676 1.838.478-.003.81-.151.954-.277l.061-.104-.298-.996-.104-.04zM37.633 10.044c-.501-.33-1.23-.49-1.895-.486-1.704.012-3.442 1.085-3.425 3.6l.003.415-1.122.008a.624.624 0 0 0 .009 1.247l1.122-.008.058 8.272a.728.728 0 0 0 1.455-.01l-.058-8.272 2.64-.019a.624.624 0 0 0-.01-1.247l-2.639.019-.003-.416c-.011-1.62.92-2.293 2-2.3.437-.003.874.098 1.291.344l.062.04.582-1.138-.07-.05zM2.955 28.605H.463v2.144h2.855v.362H.04v-5.176H3.3v.363H.463v1.945h2.492zM4.658 26.298v4.451h1.08c.513 0 .934-.179 1.264-.536.331-.358.496-.81.496-1.357v-.675c0-.54-.166-.989-.497-1.346-.332-.358-.753-.537-1.262-.537H4.658zm-.423 4.814v-5.176h1.504c.632 0 1.155.21 1.567.632.413.422.619.964.619 1.625v.665c0 .664-.206 1.205-.619 1.624-.412.42-.935.63-1.567.63H4.235zM12.632 25.936v3.508c0 .564-.173.996-.517 1.294-.345.3-.795.448-1.35.448-.547 0-.99-.15-1.33-.45-.338-.3-.507-.73-.507-1.292v-3.508h.426v3.506c0 .44.13.78.391 1.021.26.24.601.36 1.02.36.427 0 .774-.119 1.042-.358.268-.24.402-.58.402-1.023v-3.506h.423zM17.463 29.494l.007.021c-.045.52-.23.928-.554 1.225-.325.298-.76.446-1.305.446-.576 0-1.04-.208-1.394-.624-.353-.416-.53-.954-.53-1.615v-.843c0-.659.177-1.197.53-1.616.354-.418.818-.627 1.394-.627.55 0 .986.146 1.308.437.322.292.506.702.551 1.23l-.007.022h-.398c-.057-.43-.204-.758-.443-.985-.238-.228-.575-.341-1.011-.341-.453 0-.816.175-1.09.525-.273.35-.41.8-.41 1.346v.85c0 .554.137 1.005.41 1.355.274.349.637.524 1.09.524.436 0 .774-.111 1.013-.334.24-.222.386-.554.44-.996h.399zM19.116 29.288h2.09l-1.03-2.801h-.022l-1.038 2.8zm2.229.38h-2.371l-.533 1.444H18l1.966-5.176h.401l1.952 5.176h-.44l-.534-1.444zM26.123 26.298h-1.781v4.814h-.427v-4.814h-1.78v-.362h3.988zM27.058 31.111h.427v-5.175h-.427zM32.29 28.1c0-.56-.14-1.011-.424-1.353-.283-.342-.676-.513-1.178-.513-.493 0-.877.171-1.152.513-.275.342-.412.793-.412 1.353v.85c0 .566.137 1.02.414 1.361.276.342.66.513 1.153.513.505 0 .898-.17 1.179-.511.28-.34.42-.795.42-1.362V28.1zm.424.847c0 .668-.183 1.208-.55 1.62-.365.413-.857.62-1.473.62-.607 0-1.09-.207-1.452-.62-.361-.412-.542-.952-.542-1.62v-.843c0-.666.18-1.206.54-1.621.36-.415.844-.622 1.45-.622.617 0 1.109.207 1.476.622.367.415.55.955.55 1.621v.843zM37.645 31.112h-.423l-2.94-4.451-.022.003v4.448h-.426v-5.176h.426l2.94 4.443.022-.003v-4.44h.423zM83.905 9.458a.71.71 0 1 1 1.42 0 .71.71 0 0 1-1.42 0M101.138 20.971a.46.46 0 0 0 .349.146c.41.003.475-.407.479-1.003l.078-11.087a.719.719 0 1 1 1.437.01l-.08 11.519c-.008 1.006-.527 1.824-1.656 1.816-.473-.004-.8-.15-.943-.274l-.06-.103.294-.984.102-.04zM96.763 8.314a.719.719 0 0 0-.723.713l-.078 11.087c-.004.596-.069 1.006-.48 1.003v.004H87.69l-1.056.586s-.197.665 1.056.665h7.833v-.002c1.108-.011 1.867-.82 1.874-1.814l.08-11.519a.719.719 0 0 0-.713-.723"/>
        <path d="M80.903 16.167c.262-2.174 1.748-3.252 3.657-3.239 2.013.014 3.503 1.216 3.755 3.291l-7.412-.052zm8.926.905c.022-3.1-2.139-5.436-5.218-5.458-3.1-.021-5.19 2.305-5.21 5.138-.003.288.016.493.036.637l8.89.062c-.2 2.36-2.017 3.696-4.008 3.682H79.4v1.258h4.877c2.873.019 5.528-1.912 5.552-5.32zM72.25 12.271a.695.695 0 1 1-1.39 0 .695.695 0 0 1 1.39 0M103.718 7.63l.226-1.012c-.483.211-.86.317-1.117.317-.181 0-.378-.06-.604-.181.287-.332.543-.499.755-.499.151 0 .257.06.332.167.136-.227.212-.408.212-.56 0-.362-.212-.543-.65-.543-.347 0-.68.181-.981.544-.287.347-.423.71-.423 1.087 0 .227.15.453.438.664a2.855 2.855 0 0 0-.529.997c.71-.468 1.48-.8 2.34-.981"/>
        <path d="M72.047 21.133c-1.992.014-3.808-1.322-4.01-3.682l-.036-.186c-.02-.69.049-1.046.049-1.046.252-2.075 1.743-3.277 3.755-3.29l-.05-1.315c-3.08.022-5.24 2.357-5.219 5.458.024 3.407 2.68 5.338 5.552 5.319H79.4v-1.258h-7.353zM70.188 27.967c0-.369-.087-.667-.267-.887-.165-.204-.362-.306-.597-.306-.495 0-.825.448-.825 1.193 0 .37.087.668.267.896.165.212.37.314.597.314.48 0 .825-.456.825-1.21zm1.672 1.477h-.117c-.558-.016-.974-.283-1.233-.81-.197.543-.581.81-1.162.81-.424 0-.762-.173-1.005-.51-.22-.307-.323-.676-.299-1.108h-.55c-.416 0-.534.188-.534.683l.032 2.639h-.416l-.04-2.74c-.008-.66.314-.99.959-.99h.612c.157-.613.55-.92 1.186-.92.369 0 .675.134.918.41.213.235.346.533.401.895.126.785.628 1.264 1.249 1.264v.377z"/>
        <path d="M71.735 29.444h1.515v-.385h-1.515z"/>
        <path d="M73.117 29.444h1.515v-.385h-1.515z"/>
        <path d="M74.499 29.444h1.515v-.385H74.5z"/>
        <path d="M75.88 29.444h1.516v-.385h-1.515z"/>
        <path d="M77.263 29.444h1.515v-.385h-1.515z"/>
        <path d="M78.645 29.444h1.515v-.385h-1.515z"/>
        <path d="M80.027 29.444h1.515v-.385h-1.515z"/>
        <path d="M81.409 29.444h1.515v-.385H81.41z"/>
        <path d="M82.791 29.444h1.516v-.385H82.79z"/>
        <path d="M86.034 30.732h.416v-.51h-.416v.51zm-.825 0h.416v-.51h-.416v.51zm2.278-1.288h-.66a.79.79 0 0 1-.581-.252.86.86 0 0 1-.243-.463.892.892 0 0 1-.433.558 1.093 1.093 0 0 1-.565.157h-.832v-.385l.73.008a.805.805 0 0 0 .44-.134.54.54 0 0 0 .267-.494c-.008-.558-.008-1.178-.016-1.861h.416c0 .683.008 1.193.016 1.547.008.282.094.517.26.698.148.165.313.244.486.244h.715v.377z"/>
        <path d="M90.66 29.444H90a.79.79 0 0 1-.582-.252.86.86 0 0 1-.243-.463.892.892 0 0 1-.432.558 1.096 1.096 0 0 1-.566.157h-.832v-.385h.73c.157 0 .307-.04.44-.126a.556.556 0 0 0 .267-.495c-.008-1.303-.024-2.67-.047-4.09h.416c.008 1.413.024 2.67.047 3.777.008.282.095.518.26.698.149.165.313.244.486.244h.715v.377z"/>
        <path d="M94.609 27.182c-.275-.18-.48-.306-.613-.361a2.733 2.733 0 0 0-1.028-.18c-.37 0-.692.046-.966.133-.205.062-.464.188-.786.369.801.22 1.453.699 1.963 1.437.676-.464 1.155-.935 1.43-1.398zm.817 2.262h-1.5c-.291 0-.558-.142-.786-.417-.479.275-.934.417-1.366.417h-1.257v-.385l1.241.008c.354 0 .738-.11 1.162-.33-.62-.793-1.272-1.217-1.963-1.272v-.558c.126-.126.314-.243.574-.361a3.37 3.37 0 0 1 1.405-.267c.526 0 1.005.118 1.453.346.275.149.495.313.675.494-.337.605-.887 1.178-1.657 1.736.118.141.252.212.416.204h1.603v.385z"/>
        <path d="M97.098 25.792h.416v-.51h-.416v.51zm-.825 0h.416v-.51h-.416v.51zm2.333 3.651h-.66a.79.79 0 0 1-.581-.25.864.864 0 0 1-.244-.464.892.892 0 0 1-.431.558 1.095 1.095 0 0 1-.566.157h-.832v-.385l.73.008a.807.807 0 0 0 .44-.134.54.54 0 0 0 .267-.494c-.008-.558-.008-1.178-.016-1.861h.416c0 .683.008 1.193.016 1.547.008.282.094.517.259.698.15.165.314.244.487.244h.715v.377z"/>
        <path d="M101.778 29.444h-.66a.79.79 0 0 1-.58-.252.86.86 0 0 1-.244-.463.892.892 0 0 1-.432.558 1.095 1.095 0 0 1-.566.157h-.832v-.385h.73c.158 0 .307-.04.44-.126a.556.556 0 0 0 .267-.495c-.008-1.303-.023-2.67-.047-4.09h.416c.008 1.413.024 2.67.047 3.777.008.282.095.518.26.698.149.165.314.244.487.244h.714v.377z"/>
        <path d="M103.513 28.438c0 .307-.078.55-.228.731-.172.18-.408.275-.722.275h-.927v-.385h.856c.409 0 .605-.212.605-.628 0-1.1-.008-2.458-.016-4.084h.417c0 1.092.007 2.45.015 4.091M52.305 28.54a8.473 8.473 0 0 1-6.05-2.516c-1.567-1.575-2.423-3.651-2.411-5.845.018-3.316 2.097-6.39 5.174-7.65l.09-.037V9.803l-.188.059c-4.51 1.41-7.644 5.695-7.621 10.418.03 5.957 4.975 10.804 11.025 10.804h3.707l-.016-.158a2.634 2.634 0 0 0-2.632-2.387h-1.078zM55.207 9.81v2.694l.09.037c3.095 1.293 5.175 4.44 5.175 7.831v8.067c0 1.368 1.025 2.5 2.386 2.633l.158.015V20.39c0-4.768-3.133-9.094-7.62-10.52l-.189-.06z"/>
        <path d="M50.885 5.15v15.424c0 .702.571 1.273 1.272 1.273.702 0 1.273-.571 1.273-1.273V5.151c0-.702-.57-1.273-1.273-1.273-.701 0-1.272.571-1.272 1.273zM53.658 1.65c-.565.248-1.006.371-1.306.371-.212 0-.441-.07-.706-.211.335-.389.635-.583.882-.583.177 0 .3.07.389.194.158-.265.247-.477.247-.653 0-.424-.247-.635-.76-.635-.405 0-.793.211-1.146.635-.336.406-.495.83-.495 1.271 0 .265.177.53.512.776a3.335 3.335 0 0 0-.618 1.166 7.84 7.84 0 0 1 2.736-1.148l.265-1.182z"/>
    </g>
</svg>
