<svg xmlns="http://www.w3.org/2000/svg" xmlns:xlink="http://www.w3.org/1999/xlink" width="120" height="109" viewBox="0 0 120 109">
    <defs>
        <path id="a" d="M1.859 5.648A49.616 49.616 0 0 0 .085 1.006.63.63 0 0 1 1.238.499a50.662 50.662 0 0 1 1.817 4.76.63.63 0 0 1-1.196.39z"/>
        <path id="c" d="M2.039.086a.629.629 0 0 1 .504.734 50.47 50.47 0 0 1-1.185 4.954.628.628 0 1 1-1.207-.353A49.83 49.83 0 0 0 1.305.59a.628.628 0 0 1 .734-.503z"/>
        <path id="e" d="M.63 1.368A.63.63 0 1 1 .826.124C2.5.387 4.179.737 5.812 1.164a.629.629 0 1 1-.318 1.218A50.051 50.051 0 0 0 .63 1.368z"/>
        <path id="g" d="M.382.19a.629.629 0 0 1 .877.151 50.927 50.927 0 0 1 2.729 4.303.629.629 0 1 1-1.094.62A49.916 49.916 0 0 0 .23 1.067.63.63 0 0 1 .382.19z"/>
        <path id="i" d="M3.727 4.788a50.201 50.201 0 0 0-3.44-3.587.63.63 0 1 1 .864-.915 51.477 51.477 0 0 1 3.527 3.677.63.63 0 0 1-.951.825z"/>
        <path id="k" d="M.363 1.243A.63.63 0 0 1 1.03.174a51.387 51.387 0 0 1 4.183 2.907.628.628 0 1 1-.769.997 49.783 49.783 0 0 0-4.08-2.835z"/>
        <path id="m" d="M.91 5.732A49.529 49.529 0 0 0 .102.83a.629.629 0 1 1 1.23-.267c.357 1.652.637 3.343.829 5.026a.63.63 0 1 1-1.251.143z"/>
        <path id="o" d="M.462 1.286a.63.63 0 0 1 .44-1.18c1.587.592 3.16 1.271 4.68 2.018a.628.628 0 0 1-.279 1.194.627.627 0 0 1-.277-.065A49.647 49.647 0 0 0 .462 1.286z"/>
        <path id="q" d="M1.392 5.844a.629.629 0 1 1-1.255-.106A50.272 50.272 0 0 0 .31.771.63.63 0 0 1 .93.132c.35-.018.634.273.639.62a52.137 52.137 0 0 1-.177 5.091z"/>
        <path id="s" d="M.79 1.422A.622.622 0 0 1 .137.819.629.629 0 0 1 .739.164a52.49 52.49 0 0 1 5.094.034.63.63 0 0 1-.035 1.258h-.035A50.705 50.705 0 0 0 .79 1.421z"/>
        <path id="u" d="M2.999.151c.322.13.478.498.346.82a50.923 50.923 0 0 1-2.15 4.619.629.629 0 1 1-1.113-.588A49.865 49.865 0 0 0 2.18.498.63.63 0 0 1 3 .15z"/>
        <path id="w" d="M5.74.4a.63.63 0 0 1-.002 1.259h-.001a51.728 51.728 0 0 1-5.088-.261.631.631 0 0 1-.564-.69.627.627 0 0 1 .69-.563C2.415.311 4.084.397 5.74.4z"/>
        <path id="y" d="M5.63 1.382a.63.63 0 0 1-.25 1.234A50.767 50.767 0 0 1 .444 1.349.63.63 0 1 1 .818.147c1.573.49 3.193.906 4.812 1.235z"/>
        <path id="A" d="M5.462 2.402a.63.63 0 1 1-.493 1.158A50.974 50.974 0 0 1 .388 1.332.629.629 0 1 1 .994.229a49.651 49.651 0 0 0 4.468 2.173z"/>
        <path id="C" d="M5.123.189a.629.629 0 1 1 .489 1.16 50.855 50.855 0 0 1-4.79 1.738.63.63 0 0 1-.787-.417.63.63 0 0 1 .417-.786A49.616 49.616 0 0 0 5.123.189z"/>
        <path id="E" d="M5.552.048a.628.628 0 1 1 .246 1.234c-1.655.33-3.352.582-5.043.746A.63.63 0 0 1 .635.775 49.827 49.827 0 0 0 5.552.048z"/>
        <path id="G" d="M2.367.138A.628.628 0 0 1 2.75.94a49.829 49.829 0 0 0-1.42 4.762.627.627 0 0 1-.76.463.63.63 0 0 1-.462-.76A51.363 51.363 0 0 1 1.563.52a.63.63 0 0 1 .804-.383z"/>
        <path id="I" d="M.678 6.371a.63.63 0 0 1-.605-.653C.14 4.023.291 2.316.525.643a.63.63 0 0 1 1.247.174 50.508 50.508 0 0 0-.441 4.95.63.63 0 0 1-.629.605H.678z"/>
        <path id="K" d="M.145 4.813a51.193 51.193 0 0 1 2.4-4.495.63.63 0 1 1 1.08.648A49.365 49.365 0 0 0 1.284 5.35a.629.629 0 1 1-1.138-.536z"/>
        <path id="M" d="M1.38.666c.097 1.652.279 3.314.54 4.941a.63.63 0 1 1-1.242.2A51.527 51.527 0 0 1 .124.74.629.629 0 1 1 1.38.666z"/>
        <path id="O" d="M40.9 22.627a2.94 2.94 0 0 0-1.654-3.809l-6.863-2.704-.172 6.247 4.88 1.923c.347.136.708.205 1.076.205 1.217 0 2.29-.73 2.734-1.862zm-10.046 3.318l.458-16.67c.108-3.983-3.141-7.448-7.14-7.542a7.273 7.273 0 0 0-5.558 2.331l-.013.013c-.65.7-3.654 6.7-5.397 10.317a2.961 2.961 0 0 0 .173 3.203l7.604 10.686c1.777 2.436 5.93.6 5.21-2.358-.176-.726-.625-1.35-1.063-1.955l-5.513-7.579c-.346-.476-.381-.82-.103-1.345l2.176-4.118c.208-.393.577-.853.992-.697.49.183.333.912.087 1.374l-2.144 4.031 5.271 7.232c.597.818 1.204 1.659 1.474 2.634.379 1.367.005 2.92-.966 3.954-.97 1.033-2.509 1.503-3.887 1.17-1.535-.37-2.709-1.61-3.59-2.921-.885-1.311-1.582-2.76-2.656-3.92-.742 3.327 1.048 7.047 4.111 8.542 1.222.596 2.1.75 2.845 1.863 1.262 1.895 2.391 3.893 3.583 5.833.017.026.03.053.043.081.323.757.548 1.555.664 2.37l1.982 11.785c.658 3.91 6.89 3.005 6.207-1.045l-1.963-11.663a15.692 15.692 0 0 0-1.257-4.27l-.081-.174-3.506-5.706a.63.63 0 0 1 .07-.75 7.342 7.342 0 0 0 1.887-4.706zm-5.438 16.5l.023-.22-.085-2.166-3.634-5.912a8.476 8.476 0 0 1-2.95-1.255l.336 8.458c.004.11-.02.22-.072.319-.945 1.788-3.716 6.576-5.966 10.38a3.15 3.15 0 0 0 2.705 4.75c1.11 0 2.148-.593 2.712-1.546 6.8-11.5 6.849-11.992 6.931-12.808zM13.747 22.814l.336-2.052-1.729-2.43a4.206 4.206 0 0 1-.265-4.519c.354-.738 2.98-6.173 4.572-8.998a2.76 2.76 0 0 0-2.357-2.737l-4.593-.692c-1.508-.23-2.918.801-3.144 2.294l-1.096 6.692a.63.63 0 0 1-.699.522 2.273 2.273 0 0 0-2.512 1.9l-.899 5.965a2.254 2.254 0 0 0 1.794 2.547.63.63 0 0 1 .505.574 2.78 2.78 0 0 0 2.35 2.537l4.594.692c1.509.229 2.92-.803 3.143-2.295zm28.27-2.936a4.169 4.169 0 0 1 .056 3.21 4.173 4.173 0 0 1-3.906 2.66 4.176 4.176 0 0 1-1.537-.293l-4.456-1.756-.063 2.28a8.592 8.592 0 0 1-1.901 5.152l3.286 5.35a.587.587 0 0 1 .036.067l.096.21a16.965 16.965 0 0 1 1.356 4.598l1.96 11.65a4.41 4.41 0 0 1-4.347 5.137 4.391 4.391 0 0 1-4.34-3.675l-1.824-10.837c-.452 1.22-1.882 3.836-6.865 12.263a4.427 4.427 0 0 1-3.795 2.164 4.412 4.412 0 0 1-2.24-.614 4.38 4.38 0 0 1-2.024-2.697 4.372 4.372 0 0 1 .476-3.338c2.18-3.69 4.853-8.303 5.856-10.18l-.373-9.406c-1.634-1.629-2.62-3.89-2.553-6.316l.067-2.453c-.316 1.946-2.019 3.345-3.959 3.345-.201 0-.403-.015-.607-.046l-4.592-.692a4.05 4.05 0 0 1-3.362-3.24 3.507 3.507 0 0 1-2.344-3.85l.898-5.964c.25-1.663 1.67-2.899 3.303-2.984l1.006-6.138C5.65 1.314 7.704-.192 9.899.14l4.593.692a4.02 4.02 0 0 1 3.126 2.458l.033-.041A8.625 8.625 0 0 1 24.206.475a8.545 8.545 0 0 1 6.012 2.684 8.548 8.548 0 0 1 2.351 6.15l-.125 4.59.06-.13.114 1.085 7.09 2.793a4.165 4.165 0 0 1 2.308 2.231z"/>
        <path id="Q" d="M13.885 7.665A6.3 6.3 0 0 0 7.59 1.37a6.3 6.3 0 0 0-6.294 6.294 6.3 6.3 0 0 0 6.294 6.294 6.3 6.3 0 0 0 6.294-6.294zm-13.847 0C.038 3.5 3.428.112 7.591.112c4.165 0 7.553 3.389 7.553 7.553s-3.388 7.553-7.553 7.553c-4.163 0-7.553-3.389-7.553-7.553z"/>
        <path id="S" d="M2.123 16.62A22.04 22.04 0 0 0 4.34 33.46C8.446 40.573 15.922 44.553 23.6 44.554c3.565 0 7.173-.86 10.509-2.663l-.712-1.231a21.15 21.15 0 0 1-1.083.545c-.037.02-.073.04-.113.051a20.584 20.584 0 0 1-8.604 1.9c-1.806 0-3.622-.238-5.414-.718a20.65 20.65 0 0 1-12.62-9.683 20.643 20.643 0 0 1-2.758-11.437v-.01c.076-1.445.3-2.893.683-4.324a20.625 20.625 0 0 1 7.854-11.43l.018-.014c.41-.297.836-.577 1.273-.847l-.705-1.222a22.029 22.029 0 0 0-9.804 13.148zM13.26 5.782c-.336.21-.667.425-.988.652-.311 1.054-1.727 6.354-.957 12.52a41.389 41.389 0 0 0 7.65-3.289l-5.705-9.883zm2.304-1.22c-.407.183-.81.381-1.21.595l5.703 9.878a41.235 41.235 0 0 0 6.614-4.929C21.795 6.41 16.658 4.863 15.565 4.563zm7.965-1.72a19.4 19.4 0 0 0-6.079.978c2.265.762 6.302 2.404 10.172 5.396a48.279 48.279 0 0 0 4.139-4.557 19.679 19.679 0 0 0-8.232-1.817zm16.607 9.224a19.394 19.394 0 0 0-7.226-6.83 49.852 49.852 0 0 1-4.3 4.779c1.861 1.57 3.644 3.465 5.126 5.746l6.4-3.695zm2.917 11.506a19.371 19.371 0 0 0-2.282-10.42l-6.377 3.682c1.413 2.452 2.34 5.105 2.799 7.943a50.361 50.361 0 0 1 5.86-1.205zm-.633 3.843c.227-.845.39-1.698.503-2.551-1.938.294-3.79.677-5.563 1.156.377 3.408.092 7.072-.863 10.973a19.378 19.378 0 0 0 5.923-9.578zm-21.53 7.691c3.019 2.12 6.714 3.751 11.065 4.88.273-.132.545-.269.813-.413l-5.4-9.356a38.848 38.848 0 0 0-6.478 4.89zm-.926.886a49.456 49.456 0 0 0-3.931 4.383c.8.332 1.623.618 2.475.846a19.386 19.386 0 0 0 11.564-.451c-3.926-1.167-7.297-2.766-10.108-4.778zm-6.575-7.03l-6.408 3.7a19.351 19.351 0 0 0 7.869 7.179 49.99 49.99 0 0 1 4.105-4.605c-2.266-1.794-4.123-3.889-5.566-6.275zm9.311-6.83L19.6 16.76a42.572 42.572 0 0 1-8.096 3.458c.4 2.312 1.132 4.708 2.354 7.021l8.844-5.105zm1.091-.63l8.85-5.11c-1.425-2.175-3.157-3.988-4.97-5.49a42.543 42.543 0 0 1-6.982 5.227l3.102 5.373zm2.967 7.66l-3.429-5.94-8.85 5.11c1.39 2.292 3.19 4.305 5.396 6.025a40.744 40.744 0 0 1 6.883-5.195zm-2.338-6.57l3.431 5.941a40.871 40.871 0 0 1 8.12-3.409c-.425-2.745-1.31-5.305-2.667-7.66l-8.884 5.129zm-14.153-2.008A49.89 49.89 0 0 1 4.04 21.9a19.35 19.35 0 0 0 2.312 9.673l6.414-3.704c-1.285-2.416-2.063-4.897-2.498-7.284zm-.199-1.255c-.662-4.886.028-9.236.567-11.606a19.382 19.382 0 0 0-5.932 9.586 19.52 19.52 0 0 0-.586 3.306 48.337 48.337 0 0 0 5.951-1.286zm24.782 18.962c1.228-4.273 1.651-8.254 1.279-11.918a38.947 38.947 0 0 0-7.669 3.215l5.401 9.355a20.7 20.7 0 0 0 .989-.652zM30.575 49.72H16.546c-1.024 0-1.89.687-2.164 1.624H32.74a2.258 2.258 0 0 0-2.164-1.624zm-7.643-3.918C15.057 45.577 7.469 41.4 3.249 34.09A23.305 23.305 0 0 1 .907 16.294 23.295 23.295 0 0 1 11.834 2.053a23.643 23.643 0 0 1 4.33-1.95.63.63 0 0 1 .4 1.194c-1.22.406-2.41.93-3.548 1.545l.706 1.223a21.104 21.104 0 0 1 1.582-.77c5.786-2.51 12.24-2.18 17.616.523a.637.637 0 0 1 .219.11l.006.006a20.651 20.651 0 0 1 8.415 8.038 20.617 20.617 0 0 1 2.703 12.227 20.933 20.933 0 0 1-.626 3.543c-1.249 4.657-4.006 8.647-7.86 11.435l-.012.01c-.412.297-.84.578-1.276.848l.707 1.222a22.316 22.316 0 0 0 2.976-2.181.63.63 0 0 1 .828.948 23.64 23.64 0 0 1-3.713 2.651 23.31 23.31 0 0 1-11.098 3.128v2.658h6.386a3.517 3.517 0 0 1 3.513 3.513.63.63 0 0 1-.63.629H13.664a.629.629 0 0 1-.63-.63 3.516 3.516 0 0 1 3.512-3.512h6.386v-2.66z"/>
        <path id="U" d="M37.818 34.466c4.4 0 7.978-3.579 7.978-7.978 0-4.4-3.578-7.978-7.978-7.978H1.36v.916h36.458c3.894 0 7.063 3.168 7.063 7.062a7.07 7.07 0 0 1-7.063 7.063H1.36v.915h36.458zM4.03 29.258c-.306 1.195-.783 2.264-1.357 3.034h35.144a5.81 5.81 0 0 0 5.804-5.804 5.81 5.81 0 0 0-5.804-5.803H2.674c.574.769 1.051 1.838 1.357 3.033H37.5a.629.629 0 1 1 0 1.259H4.28c.069.496.112 1.002.112 1.511 0 .509-.043 1.015-.112 1.511h33.223a.629.629 0 1 1 0 1.259H4.03zM1.36 9.273c0 4.399 3.579 7.978 7.978 7.978h36.458v-.916H9.338a7.07 7.07 0 0 1-7.063-7.062c0-3.894 3.169-7.063 7.063-7.063h36.458v-.915H9.338c-4.4 0-7.978 3.579-7.978 7.978zM20.75 7.76h-6.296v4.275l2.883-1.337a.627.627 0 0 1 .53 0l2.882 1.337V7.761zm22.127 3.023a11.036 11.036 0 0 1-.11-1.511c0-.51.041-1.015.11-1.512H22.008v3.023h20.869zm.249-4.281c.306-1.195.783-2.264 1.358-3.034H9.338a5.81 5.81 0 0 0-5.803 5.804 5.81 5.81 0 0 0 5.803 5.804h35.146c-.575-.77-1.052-1.84-1.358-3.034H22.008v.979a.63.63 0 0 1-.894.57l-3.513-1.628-3.512 1.629a.634.634 0 0 1-.604-.04.632.632 0 0 1-.29-.531v-.98h-3.54a.63.63 0 1 1 0-1.258h3.54V7.76h-3.54a.63.63 0 1 1 0-1.258h33.47zm3.93 19.985c0 5.093-4.144 9.237-9.238 9.237H.73a.63.63 0 0 1-.63-.63v-2.174a.63.63 0 0 1 .63-.63c.617 0 2.4-2.28 2.4-5.803 0-3.524-1.783-5.803-2.4-5.803a.63.63 0 0 1-.63-.63v-2.174a.63.63 0 0 1 .63-.63h3.96a9.241 9.241 0 0 1-4.59-7.978C.1 4.179 4.246.036 9.338.036h37.089a.63.63 0 0 1 .628.63V2.84a.63.63 0 0 1-.628.63c-.618 0-2.401 2.28-2.401 5.803 0 3.524 1.783 5.804 2.4 5.804a.63.63 0 0 1 .63.629v2.175a.63.63 0 0 1-.63.629h-3.961a9.24 9.24 0 0 1 4.59 7.978z"/>
        <path id="W" d="M.684 5.756a.63.63 0 1 1 0-1.259h3.774V.723a.63.63 0 0 1 1.259 0v3.774H9.49a.629.629 0 1 1 0 1.26H5.717V9.53a.63.63 0 0 1-1.26 0V5.756H.685z"/>
        <path id="Y" d="M9.44 4.535a.629.629 0 1 1 0 1.259H5.664v3.774a.63.63 0 0 1-1.259 0V5.794H.632a.629.629 0 1 1 0-1.26h3.774V.76a.63.63 0 0 1 1.259 0v3.775h3.774z"/>
        <path id="aa" d="M.719 3.644a.63.63 0 0 1 0-1.26H2.4V.705a.628.628 0 1 1 1.257 0v1.68H5.34a.629.629 0 1 1 0 1.26H3.658v1.68a.629.629 0 1 1-1.257 0v-1.68H.719z"/>
        <path id="ac" d="M5.297 2.323a.629.629 0 1 1 0 1.26h-1.68v1.68a.63.63 0 0 1-1.26 0v-1.68H.678a.63.63 0 1 1 0-1.26h1.68V.643a.63.63 0 0 1 1.26 0v1.68h1.68z"/>
        <path id="ae" d="M3.78 6.396a2.496 2.496 0 0 0 2.494-2.494A2.496 2.496 0 0 0 3.78 1.41a2.496 2.496 0 0 0-2.493 2.493A2.496 2.496 0 0 0 3.78 6.396zm0-6.246a3.757 3.757 0 0 1 3.753 3.752A3.756 3.756 0 0 1 3.78 7.654 3.756 3.756 0 0 1 .027 3.902 3.757 3.757 0 0 1 3.78.15z"/>
        <path id="ag" d="M3.9 6.289a2.496 2.496 0 0 0 2.493-2.494 2.496 2.496 0 0 0-2.494-2.493 2.496 2.496 0 0 0-2.493 2.493A2.496 2.496 0 0 0 3.899 6.29zm0-6.246a3.756 3.756 0 0 1 3.752 3.752A3.756 3.756 0 0 1 3.9 7.547 3.756 3.756 0 0 1 .148 3.795 3.756 3.756 0 0 1 3.899.043z"/>
    </defs>
    <g fill="none" fill-rule="evenodd">
        <g transform="translate(106.372 32.965)">
            <mask id="b" fill="#fff">
                <use xlink:href="#a"/>
            </mask>
            <path fill="#FFF" d="M-483.175 243.877h873.561V-61.357h-873.561z" mask="url(#b)"/>
        </g>
        <g transform="translate(108.508 62.572)">
            <mask id="d" fill="#fff">
                <use xlink:href="#c"/>
            </mask>
            <path fill="#FFF" d="M-485.312 214.27H388.25V-90.964h-873.562z" mask="url(#d)"/>
        </g>
        <g transform="translate(68.066 3.51)">
            <mask id="f" fill="#fff">
                <use xlink:href="#e"/>
            </mask>
            <path fill="#FFF" d="M-444.87 273.331h873.562V-31.902h-873.561z" mask="url(#f)"/>
        </g>
        <g transform="translate(101.336 24.266)">
            <mask id="h" fill="#fff">
                <use xlink:href="#g"/>
            </mask>
            <path fill="#FFF" d="M-478.14 252.576h873.562V-52.658h-873.561z" mask="url(#h)"/>
        </g>
        <g transform="translate(94.773 16.635)">
            <mask id="j" fill="#fff">
                <use xlink:href="#i"/>
            </mask>
            <path fill="#FFF" d="M-471.577 260.207h873.562V-45.027h-873.562z" mask="url(#j)"/>
        </g>
        <g transform="translate(86.837 10.53)">
            <mask id="l" fill="#fff">
                <use xlink:href="#k"/>
            </mask>
            <path fill="#FFF" d="M-463.64 266.311h873.56V-38.923h-873.56z" mask="url(#l)"/>
        </g>
        <g transform="translate(109.424 42.58)">
            <mask id="n" fill="#fff">
                <use xlink:href="#m"/>
            </mask>
            <path fill="#FFF" d="M-486.228 234.262h873.562V-70.972h-873.562z" mask="url(#n)"/>
        </g>
        <g transform="translate(77.833 6.105)">
            <mask id="p" fill="#fff">
                <use xlink:href="#o"/>
            </mask>
            <path fill="#FFF" d="M-454.637 270.737h873.562V-34.497h-873.562z" mask="url(#p)"/>
        </g>
        <g transform="translate(110.34 52.5)">
            <mask id="r" fill="#fff">
                <use xlink:href="#q"/>
            </mask>
            <path fill="#FFF" d="M-487.143 224.342h873.561V-80.89h-873.561z" mask="url(#r)"/>
        </g>
        <g transform="translate(57.993 2.9)">
            <mask id="t" fill="#fff">
                <use xlink:href="#s"/>
            </mask>
            <path fill="#FFF" d="M-434.797 273.942h873.562V-31.292h-873.562z" mask="url(#t)"/>
        </g>
        <g transform="translate(104.846 72.186)">
            <mask id="v" fill="#fff">
                <use xlink:href="#u"/>
            </mask>
            <path fill="#FFF" d="M-481.65 204.655h873.562v-305.234h-873.561z" mask="url(#v)"/>
        </g>
        <g transform="translate(55.094 103.32)">
            <mask id="x" fill="#fff">
                <use xlink:href="#w"/>
            </mask>
            <path fill="#FFF" d="M-431.897 173.522h873.561v-305.234h-873.561z" mask="url(#x)"/>
        </g>
        <g transform="translate(45.326 101.336)">
            <mask id="z" fill="#fff">
                <use xlink:href="#y"/>
            </mask>
            <path fill="#FFF" d="M-422.13 175.506h873.562v-305.234H-422.13z" mask="url(#z)"/>
        </g>
        <g transform="translate(36.017 97.368)">
            <mask id="B" fill="#fff">
                <use xlink:href="#A"/>
            </mask>
            <path fill="#FFF" d="M-412.82 179.474H460.74V-125.76H-412.82z" mask="url(#B)"/>
        </g>
        <g transform="translate(75.086 99.657)">
            <mask id="D" fill="#fff">
                <use xlink:href="#C"/>
            </mask>
            <path fill="#FFF" d="M-451.89 177.185h873.562V-128.05H-451.89z" mask="url(#D)"/>
        </g>
        <g transform="translate(65.166 102.71)">
            <mask id="F" fill="#fff">
                <use xlink:href="#E"/>
            </mask>
            <path fill="#FFF" d="M-441.97 174.132h873.562V-131.1H-441.97z" mask="url(#F)"/>
        </g>
        <g transform="translate(11.293 36.475)">
            <mask id="H" fill="#fff">
                <use xlink:href="#G"/>
            </mask>
            <path fill="#FFF" d="M-388.097 240.367h873.562V-64.867h-873.562z" mask="url(#H)"/>
        </g>
        <g transform="translate(9.92 46.242)">
            <mask id="J" fill="#fff">
                <use xlink:href="#I"/>
            </mask>
            <path fill="#FFF" d="M-386.723 230.6h873.561V-74.634h-873.561z" mask="url(#J)"/>
        </g>
        <g transform="translate(14.65 27.47)">
            <mask id="L" fill="#fff">
                <use xlink:href="#K"/>
            </mask>
            <path fill="#FFF" d="M-391.455 249.371h873.562V-55.863h-873.562z" mask="url(#L)"/>
        </g>
        <g transform="translate(9.92 56.315)">
            <mask id="N" fill="#fff">
                <use xlink:href="#M"/>
            </mask>
            <path fill="#FFF" d="M-386.723 220.527h873.561V-84.707h-873.561z" mask="url(#N)"/>
        </g>
        <g transform="translate(62.572 38.306)">
            <mask id="P" fill="#fff">
                <use xlink:href="#O"/>
            </mask>
            <path fill="#FFF" d="M-439.375 238.535h873.561V-66.698h-873.561z" mask="url(#P)"/>
        </g>
        <g transform="translate(80.275 23.503)">
            <mask id="R" fill="#fff">
                <use xlink:href="#Q"/>
            </mask>
            <path fill="#FFF" d="M-457.078 253.339h873.561V-51.895h-873.561z" mask="url(#R)"/>
        </g>
        <g transform="translate(21.213 2.9)">
            <mask id="T" fill="#fff">
                <use xlink:href="#S"/>
            </mask>
            <path fill="#FFF" d="M-398.017 273.942h873.562V-31.292h-873.562z" mask="url(#T)"/>
        </g>
        <g transform="translate(14.04 59.367)">
            <mask id="V" fill="#fff">
                <use xlink:href="#U"/>
            </mask>
            <path fill="#FFF" d="M-390.844 217.475h873.562V-87.76h-873.562z" mask="url(#V)"/>
        </g>
        <g transform="translate(96.147)">
            <mask id="X" fill="#fff">
                <use xlink:href="#W"/>
            </mask>
            <path fill="#FFF" d="M-472.95 276.842H400.61V-28.392H-472.95z" mask="url(#X)"/>
        </g>
        <g transform="translate(0 66.234)">
            <mask id="Z" fill="#fff">
                <use xlink:href="#Y"/>
            </mask>
            <path fill="#FFF" d="M-376.804 210.607h873.562V-94.627h-873.562z" mask="url(#Z)"/>
        </g>
        <g transform="translate(11.293 13.735)">
            <mask id="ab" fill="#fff">
                <use xlink:href="#aa"/>
            </mask>
            <path fill="#FFF" d="M-388.097 263.106h873.562V-42.128h-873.562z" mask="url(#ab)"/>
        </g>
        <g transform="translate(106.524 88.21)">
            <mask id="ad" fill="#fff">
                <use xlink:href="#ac"/>
            </mask>
            <path fill="#FFF" d="M-483.328 188.63h873.562v-305.233h-873.562z" mask="url(#ad)"/>
        </g>
        <g transform="translate(111.56 25.334)">
            <mask id="af" fill="#fff">
                <use xlink:href="#ae"/>
            </mask>
            <path fill="#FFF" d="M-488.364 251.508h873.561V-53.726h-873.561z" mask="url(#af)"/>
        </g>
        <g transform="translate(25.334 101.183)">
            <mask id="ah" fill="#fff">
                <use xlink:href="#ag"/>
            </mask>
            <path fill="#FFF" d="M-402.137 175.659h873.561v-305.234h-873.561z" mask="url(#ah)"/>
        </g>
    </g>
</svg>
