<svg xmlns="http://www.w3.org/2000/svg" xmlns:xlink="http://www.w3.org/1999/xlink" width="109" height="110" viewBox="0 0 109 110">
    <defs>
        <path id="a" d="M71.16 13.527l-2.616-.018v15.128h2.616v-15.11zm1.321-.655v16.426a.66.66 0 0 1-.66.66h-3.938a.66.66 0 0 1-.66-.66V12.843a.66.66 0 0 1 .66-.66h.005l3.937.028a.66.66 0 0 1 .656.66zm-1.685-5.307l-.567.16.231.321.336-.481zm2.138-1.522a.66.66 0 0 1 .004.761l-1.926 2.761a.66.66 0 0 1-.536.283h-.006a.66.66 0 0 1-.536-.274l-.344-.477-7.385 4.25a.653.653 0 0 1-.501.066l-7.574-2.041-7.615 5.863a.658.658 0 0 1-.926-.12.66.66 0 0 1 .12-.927l7.874-6.062a.657.657 0 0 1 .575-.115l7.625 2.055 7.029-4.045-.208-.287a.662.662 0 0 1 .356-1.023l3.256-.92a.66.66 0 0 1 .718.252zm-17.56 9.44l-2.616-.017v13.171h2.616V15.483zm1.321-.657v14.472a.66.66 0 0 1-.66.66h-3.938a.66.66 0 0 1-.66-.66V14.804l1.832-.656 2.77.018a.66.66 0 0 1 .656.66zm6.633 5.687l-2.616-.01v8.134h2.616v-8.124zm1.321-.657v9.442a.66.66 0 0 1-.66.66H60.05a.66.66 0 0 1-.66-.66V19.84a.661.661 0 0 1 .66-.661h.003l3.938.016a.66.66 0 0 1 .657.66zm-17.229.657l-2.616-.01v8.134h2.616v-8.124zm1.321-.657v9.442a.66.66 0 0 1-.66.66h-3.938a.66.66 0 0 1-.66-.66V19.84a.661.661 0 0 1 .66-.661h.003l3.938.016a.66.66 0 0 1 .657.66zm-17.276 20.01a.66.66 0 0 1 0-1.322h54.07a.66.66 0 1 1 0 1.321h-54.07zm.901-1.989a.66.66 0 0 1 0-1.32h52.268a.66.66 0 0 1 0 1.32H32.366zm50.581-32.97a.304.304 0 0 0-.303-.305H34.28a.304.304 0 0 0-.304.304v26.587c0 .168.136.304.304.304h48.363a.304.304 0 0 0 .303-.304V4.906zm1.321 0v26.586c0 .897-.728 1.626-1.624 1.626H34.28a1.627 1.627 0 0 1-1.625-1.626V4.906c0-.896.729-1.625 1.625-1.625h48.363c.896 0 1.624.73 1.624 1.625zm-58.544 38.19c.024.06.07.06.087.06h24.897l.712-2.133a.655.655 0 0 1 .067-.142.916.916 0 0 1 .78-.432h12.467c.319 0 .61.161.78.432.028.044.05.092.067.142l.711 2.132h24.82c.02 0 .064 0 .087-.057.026-.06-.007-.093-.022-.107a.626.626 0 0 1-.071-.084l-5.089-7.161h-55.26L25.82 42.9a.656.656 0 0 1-.076.092c-.015.015-.046.046-.021.105zm5.514-8.671h54.453V4.15A2.705 2.705 0 0 0 82.99 1.45H33.933a2.701 2.701 0 0 0-2.695 2.701v30.275zm33.662 8.73l-.462-1.385H52.563l-.462 1.385h12.8zm-40.137-1.048l5.154-7.47V4.151c0-1.543.873-2.884 2.149-3.558a3.981 3.981 0 0 1 1.99-.534h49.056a4.027 4.027 0 0 1 4.023 4.022v30.936l-.002.02 5.022 7.067c.374.407.478.99.265 1.5-.219.531-.734.873-1.309.873h-65.3a1.413 1.413 0 0 1-1.308-.875 1.413 1.413 0 0 1 .26-1.494zm5.396 28.808a.699.699 0 1 0-1.397.001.699.699 0 0 0 1.397-.001zm-6.792-2.485a.699.699 0 1 0-1.398.001.699.699 0 0 0 1.398-.001zm-6.897 4.597a.699.699 0 1 0-1.398.002.699.699 0 0 0 1.398-.002zm19.394-7a.699.699 0 1 0 1.398-.002.699.699 0 0 0-1.398.001zm-.493 1.621L31.4 70.382c.047.172.08.348.08.534 0 1.113-.906 2.019-2.02 2.019a2.021 2.021 0 0 1-2.02-2.02c0-.011.004-.022.004-.034l-3.22-1.178c-.371.452-.927.747-1.556.747a2 2 0 0 1-1.214-.416l-3.735 2.489c.043.162.072.33.072.505 0 1.114-.906 2.02-2.02 2.02a2.022 2.022 0 0 1-2.02-2.02c0-1.113.906-2.019 2.02-2.019a2 2 0 0 1 1.214.416l3.735-2.489a2.003 2.003 0 0 1-.072-.505c0-1.114.907-2.02 2.02-2.02 1.114 0 2.02.906 2.02 2.02 0 .012-.003.022-.003.034l3.22 1.178c.371-.452.927-.747 1.556-.747a2 2 0 0 1 1.191.398l3.971-2.733a1.992 1.992 0 0 1-.08-.534c0-1.113.906-2.019 2.02-2.019 1.114 0 2.02.906 2.02 2.02 0 1.113-.906 2.019-2.02 2.019a2 2 0 0 1-1.192-.398zM21.083 89.171h3.065V74.854h-3.065V89.17zm4.387-14.476v14.633c0 .642-.522 1.164-1.164 1.164h-3.38a1.165 1.165 0 0 1-1.164-1.164V74.695c0-.641.522-1.162 1.164-1.162h3.38c.642 0 1.164.52 1.164 1.162zM14.407 89.171h2.728v-9.21h-2.728v9.21zm2.885-10.531c.642 0 1.164.522 1.164 1.164v9.524c0 .642-.522 1.164-1.164 1.164H14.25a1.165 1.165 0 0 1-1.164-1.164v-9.524c0-.642.522-1.164 1.164-1.164h3.042zM28.377 89.17h2.731V77.568h-2.73v11.603zm-.157 1.321a1.165 1.165 0 0 1-1.164-1.164V77.411c0-.641.522-1.164 1.164-1.164h3.046c.641 0 1.163.523 1.163 1.164v11.917c0 .642-.522 1.164-1.163 1.164H28.22zm6.886-1.32h2.963V71.184h-2.963V89.17zm-1.32.156v-18.3c0-.643.521-1.164 1.163-1.164h3.277c.642 0 1.164.521 1.164 1.164v18.3c0 .642-.522 1.164-1.164 1.164h-3.277a1.165 1.165 0 0 1-1.164-1.164zm4.621-29.22a19.16 19.16 0 0 1 2.877 2.219l5.715-5.714a27.36 27.36 0 0 0-5.407-4.013l-3.185 7.507zm-1.152-.669l3.167-7.464a26.99 26.99 0 0 0-6.031-2.178l-.91 8.109a18.99 18.99 0 0 1 3.774 1.533zm-4.163-9.909a27.192 27.192 0 0 0-4.176-.427v8.086c1.118.04 2.21.179 3.271.402l.905-8.061zm14.84 8.017l-5.714 5.713c.818.876 1.556 1.83 2.2 2.847l7.253-3.62a27.338 27.338 0 0 0-3.739-4.94zm4.384 6.093l-7.232 3.61a19.001 19.001 0 0 1 1.435 3.427l8.073-1.144a26.98 26.98 0 0 0-2.276-5.893zm2.574 7.185l-8.02 1.136c.276 1.185.44 2.41.484 3.667h8.087a27.165 27.165 0 0 0-.551-4.803zM28.256 58.5a.66.66 0 0 1-.66-.66v-9.405a.66.66 0 0 1 .66-.66 28.33 28.33 0 0 1 13.205 3.254c.024.007.048.011.07.022a.644.644 0 0 1 .149.09 28.687 28.687 0 0 1 6.676 4.944c.02.016.045.024.063.042.019.019.026.044.042.063a28.497 28.497 0 0 1 7.562 13.638.653.653 0 0 1 .047.163c.002.017 0 .033.002.05.452 2.012.698 4.101.698 6.247a.66.66 0 0 1-.66.661h-9.405a.66.66 0 0 1-.66-.66c0-9.809-7.98-17.79-17.79-17.79zm22.157 24.462h-6.3c-.338 8.08-6.85 14.592-14.93 14.93v6.3c11.552-.344 20.886-9.679 21.23-21.23zm1.331-.66c0 12.804-10.417 23.22-23.221 23.22a.66.66 0 0 1-.66-.66v-7.617a.66.66 0 0 1 .66-.66c7.875 0 14.282-6.408 14.282-14.283a.66.66 0 0 1 .661-.661h7.618a.66.66 0 0 1 .66.661zM22.57 97.892c-8.08-.338-14.59-6.85-14.929-14.93h-6.3c.343 11.551 9.678 20.886 21.23 21.23v-6.3zm1.321-.647v7.617a.66.66 0 0 1-.66.66C10.427 105.522.01 95.106.01 82.302a.66.66 0 0 1 .66-.661h7.618a.66.66 0 0 1 .66.661c0 7.875 6.408 14.283 14.283 14.283a.66.66 0 0 1 .66.66zM1.341 76.35h6.3c.338-8.08 6.85-14.592 14.93-14.93V55.12c-11.552.343-20.887 9.677-21.23 21.229zM.01 77.01c0-12.805 10.417-23.221 23.22-23.221a.66.66 0 0 1 .661.66v7.617a.66.66 0 0 1-.66.66c-7.875 0-14.282 6.408-14.282 14.284a.66.66 0 0 1-.661.66H.67a.66.66 0 0 1-.66-.66zm107.406 20.32c-2.097 1.954-6.503 3.271-11.718 3.271-5.195 0-9.587-1.31-11.694-3.25v1.223c0 .032-.003.063-.005.095v.087c0 2.158 4.81 4.564 11.709 4.564s11.708-2.406 11.708-4.564v-1.425zm-.01-6.633v-1.43c-2.1 1.947-6.501 3.26-11.708 3.26-5.194 0-9.587-1.308-11.694-3.248v1.617c.284 2.104 5.007 4.363 11.694 4.363 6.901 0 11.709-2.405 11.709-4.562zM84.005 94.52v.396c.284 2.105 5.007 4.364 11.694 4.364 6.901 0 11.709-2.406 11.709-4.563v-1.4c-2.1 1.95-6.501 3.263-11.709 3.263-5.195 0-9.587-1.308-11.694-3.25V94.52zm-.011-7.888c.04 2.151 4.835 4.536 11.705 4.536 6.901 0 11.709-2.405 11.709-4.562v-1.431c-2.101 1.948-6.502 3.26-11.709 3.26-5.205 0-9.606-1.312-11.707-3.26v1.424c.002.01.002.022.002.033zm2.213-15.678a4.802 4.802 0 0 1 1.15-6.006l-3.279-5.353a4.718 4.718 0 0 1-3.833 0l-3.278 5.353a4.804 4.804 0 0 1 1.737 3.702 4.803 4.803 0 0 1-1.737 3.7l3.278 5.353a4.723 4.723 0 0 1 2.426-.379V75.14c0-.03.004-.061.01-.09-.004-.055-.01-.11-.01-.166 0-1.559 1.325-2.93 3.536-3.93zM82.683 86.85c0-2.038-4.808-4.307-11.707-4.307-6.9 0-11.708 2.27-11.708 4.307 0 2.036 4.808 4.306 11.708 4.306s11.707-2.27 11.707-4.306zm0 2.55c-2.08 1.857-6.431 3.077-11.707 3.077-5.276 0-9.628-1.22-11.708-3.077v.99c0 2.159 4.808 4.563 11.708 4.563s11.707-2.404 11.707-4.563v-.99zm0 3.651c-2.1 1.948-6.502 3.26-11.707 3.26-5.205 0-9.607-1.312-11.708-3.26v1.43c0 2.157 4.808 4.563 11.708 4.563s11.707-2.406 11.707-4.563v-1.43zm0 4.091c-2.1 1.948-6.502 3.26-11.707 3.26-5.205 0-9.607-1.312-11.708-3.26v1.431c0 2.158 4.808 4.562 11.708 4.562s11.707-2.404 11.707-4.562v-1.43zm-20.45-15.046c0 .17.016.334.04.497 1.834-.694 4.155-1.16 6.774-1.315-.368-1.524-1.731-2.662-3.357-2.662-1.906 0-3.457 1.562-3.457 3.48zm20.437.418V78.66a3.43 3.43 0 0 0-.51-.043c-1.906 0-3.457 1.562-3.457 3.48 0 .057.006.111.009.167 1.682.518 3.039 1.21 3.958 2.026V82.55l.002-.013-.002-.023zm-13.94-4.118a4.81 4.81 0 0 1 1.656 2.832 31.193 31.193 0 0 1 4.296.209h2.751a4.802 4.802 0 0 1 1.687-3.041l-3.278-5.353a4.723 4.723 0 0 1-3.833 0l-3.278 5.353zm5.195-6.267c1.907 0 3.457-1.561 3.457-3.48 0-1.92-1.55-3.482-3.457-3.482-1.906 0-3.457 1.562-3.457 3.482 0 1.919 1.55 3.48 3.457 3.48zm8.236-13.45c1.905 0 3.456-1.56 3.456-3.48s-1.55-3.48-3.456-3.48c-1.907 0-3.458 1.56-3.458 3.48s1.551 3.48 3.458 3.48zm4.778 9.97c0 .664.19 1.284.511 1.812 1.763-.605 3.925-1.01 6.339-1.151.04-.215.064-.436.064-.661 0-1.92-1.55-3.482-3.457-3.482-1.906 0-3.457 1.562-3.457 3.482zm8.76 15.695c-5.206 0-9.607-1.313-11.708-3.26v1.43c0 2.157 4.808 4.562 11.707 4.562 6.901 0 11.709-2.405 11.709-4.562v-1.43c-2.101 1.947-6.502 3.26-11.709 3.26zm11.708-5.922v-.99c-2.08 1.856-6.432 3.078-11.709 3.078-5.274 0-9.627-1.222-11.707-3.079v.991c0 2.158 4.808 4.563 11.707 4.563 6.901 0 11.709-2.405 11.709-4.563zm-23.416-3.54c0 2.037 4.808 4.307 11.707 4.307 6.901 0 11.709-2.27 11.709-4.307 0-2.037-4.808-4.307-11.709-4.307-6.9 0-11.707 2.27-11.707 4.307zm24.737 19.735c.004.027.009.056.009.085v4.053c0 3.3-5.724 5.885-13.03 5.885-5.914 0-10.79-1.695-12.432-4.09-1.763 2.298-6.537 3.906-12.3 3.906-7.306 0-13.028-2.585-13.028-5.883V94.52v-.013-4.078-.013V87.107c0-.032.004-.06.008-.09-.003-.055-.008-.11-.008-.166 0-1.449 1.144-2.736 3.081-3.712a4.833 4.833 0 0 1-.116-1.042c0-2.647 2.143-4.8 4.778-4.8.682 0 1.33.146 1.917.406l3.278-5.353a4.803 4.803 0 0 1-1.738-3.7c0-2.649 2.143-4.803 4.778-4.803.682 0 1.33.147 1.917.407L79.12 58.9a4.803 4.803 0 0 1-1.738-3.7c0-2.648 2.144-4.802 4.779-4.802 2.634 0 4.778 2.154 4.778 4.802a4.802 4.802 0 0 1-1.738 3.7l3.279 5.353a4.718 4.718 0 0 1 1.916-.407c2.635 0 4.778 2.154 4.778 4.803 0 .207-.018.41-.043.61.189-.002.377-.005.567-.005 7.429 0 13.03 2.42 13.03 5.628 0 .055-.005.11-.01.166.005.029.01.06.01.09v3.284l-.002.024.002.013v4.055l-.002.023.002.013v4.055l-.002.023.002.014v7.975zm-65.21 11.955a.662.662 0 0 1-.276 1.292 53.874 53.874 0 0 1-2.6-.626.66.66 0 0 1 .341-1.276c.832.222 1.685.428 2.536.61zm12.715 1.128a.66.66 0 1 1 .044 1.321 54.707 54.707 0 0 1-6.55-.18.66.66 0 1 1 .115-1.316c2.113.187 4.276.246 6.391.175zm8.934-1.062a.66.66 0 1 1 .269 1.293c-.865.18-1.75.34-2.632.478a.66.66 0 0 1-.204-1.305c.86-.134 1.723-.29 2.567-.466zm-42.43-92.665a.66.66 0 0 1-.398-1.189 54.359 54.359 0 0 1 2.176-1.555.661.661 0 0 1 .741 1.094c-.717.485-1.43.996-2.122 1.517a.658.658 0 0 1-.397.133zM7.864 30.666a.66.66 0 0 1-.26-.897 53.746 53.746 0 0 1 2.99-4.806.66.66 0 0 1 1.083.756 52.41 52.41 0 0 0-2.915 4.687.66.66 0 0 1-.898.26zm6.706-9.072a.66.66 0 0 1-.498-1.094A54.047 54.047 0 0 1 18 16.427a.661.661 0 0 1 .901.966 52.756 52.756 0 0 0-3.831 3.973.659.659 0 0 1-.5.228zM3.676 41.014a.66.66 0 0 1-.444-.822 53.267 53.267 0 0 1 1.909-5.328.66.66 0 1 1 1.218.51 52.035 52.035 0 0 0-1.861 5.196.661.661 0 0 1-.822.444zm-1.908 11a.66.66 0 0 1-.606-.71c.147-1.88.396-3.769.74-5.611a.661.661 0 0 1 1.298.241 52.513 52.513 0 0 0-.722 5.473.66.66 0 0 1-.71.606zm.04 8.23a.661.661 0 0 1-.659-.61 54.138 54.138 0 0 1-.135-2.673.66.66 0 0 1 .643-.677.653.653 0 0 1 .677.643c.023.868.067 1.744.133 2.606a.66.66 0 0 1-.66.712zm104.489 1.667a.66.66 0 1 1 1.31.16 52.626 52.626 0 0 1-.389 2.646.66.66 0 1 1-1.301-.224 53.15 53.15 0 0 0 .38-2.582zM98.92 28.154a52.49 52.49 0 0 0-2.846-4.145.66.66 0 1 1 1.052-.8 53.731 53.731 0 0 1 2.918 4.25.662.662 0 0 1-1.124.695zm7.632 23.7a.66.66 0 0 1 1.318-.093 54.782 54.782 0 0 1 .113 5.154.66.66 0 0 1-.66.644l-.017-.001a.659.659 0 0 1-.642-.677 52.961 52.961 0 0 0-.112-5.027zm-.592-4.992a51.976 51.976 0 0 0-1.069-4.912.66.66 0 1 1 1.275-.343 53.32 53.32 0 0 1 1.098 5.036.662.662 0 0 1-1.304.219zm-2.609-9.696a51.99 51.99 0 0 0-1.998-4.613.66.66 0 0 1 1.185-.583 53.254 53.254 0 0 1 2.049 4.731.659.659 0 1 1-1.236.465zM91.027 18.284a.66.66 0 0 1 .925-.944 54.914 54.914 0 0 1 1.862 1.919.661.661 0 0 1-.971.896 52.566 52.566 0 0 0-1.816-1.871z"/>
    </defs>
    <g fill="none" fill-rule="evenodd">
        <mask id="b" fill="#fff">
            <use xlink:href="#a"/>
        </mask>
        <path fill="#FFF" d="M-49.753 316.721h1189.444V-79.19H-49.753z" mask="url(#b)"/>
    </g>
</svg>
