<svg xmlns="http://www.w3.org/2000/svg" xmlns:xlink="http://www.w3.org/1999/xlink" width="112" height="110" viewBox="0 0 112 110">
    <defs>
        <path id="a" d="M41.729 66.581l14.568-11.844a.68.68 0 0 1 .859 0l14.57 11.844h3.78L56.728 50.91 37.946 66.58h3.783zm-5.272-19.465L25.26 66.581h10.556L56.29 49.498a.68.68 0 0 1 .872 0L77.637 66.58h10.556L76.995 47.116H36.457zm47.763 46.24v-25.41H71.483a.678.678 0 0 1-.43-.153L56.727 56.145 42.4 67.793a.678.678 0 0 1-.431.153H29.232v25.41h21.212V85.54a6.29 6.29 0 0 1 6.283-6.284 6.291 6.291 0 0 1 6.283 6.284v7.816h21.21zM61.644 85.54a4.923 4.923 0 0 0-4.917-4.92 4.924 4.924 0 0 0-4.92 4.92v7.816h9.837V85.54zM27.062 97.075H86.39V94.72H27.062v2.355zm-2.301 3.718h63.93V98.44h-63.93v2.354zm65.294-33.53l-.002.023a.85.85 0 0 1-.009.074c-.002.02-.004.041-.009.061l-.02.063-.023.062-.03.057a.56.56 0 0 1-.076.106c-.017.017-.03.035-.047.05a.926.926 0 0 1-.107.083l-.02.013-.033.015a.768.768 0 0 1-.131.05l-.063.015a.647.647 0 0 1-.077.007c-.01 0-.024.004-.035.004h-3.79v25.41h1.489c.378 0 .682.305.682.682v3.037h1.62c.375 0 .681.305.681.682v3.718a.683.683 0 0 1-.682.683H24.08a.683.683 0 0 1-.682-.683v-3.718c0-.377.306-.682.682-.682h1.62v-3.037c0-.377.303-.682.681-.682h1.489v-25.41h-3.79-.002a.671.671 0 0 1-.155-.02c-.016-.004-.029-.01-.042-.014a.645.645 0 0 1-.116-.047c-.008-.004-.017-.006-.024-.01-.006-.004-.013-.01-.02-.013a.926.926 0 0 1-.106-.083c-.018-.015-.031-.032-.046-.049l-.042-.05-.035-.056c-.01-.02-.022-.038-.03-.058a.584.584 0 0 1-.022-.061.67.67 0 0 1-.022-.064.545.545 0 0 1-.009-.06.845.845 0 0 1-.009-.075l-.002-.022c0-.013.005-.025.005-.037l.006-.075a.62.62 0 0 1 .015-.063c.007-.021.011-.043.02-.064a.704.704 0 0 1 .03-.066l.016-.036 11.983-20.829a.68.68 0 0 1 .59-.342h41.326c.245 0 .47.13.593.342l11.982 20.83c.007.01.011.023.018.035.008.021.02.043.028.066a.362.362 0 0 1 .02.064l.015.062c.004.026.007.05.007.076 0 .012.004.024.004.037zm-31.562-.328a.68.68 0 0 1 .91.32.68.68 0 0 1-.32.91l-2.06.99-.014.004a.657.657 0 0 1-.11.038l-.028.01a.676.676 0 0 1-.14.015h-.004a.686.686 0 0 1-.17-.023l-.04-.013a.679.679 0 0 1-.129-.056c-.008-.006-.02-.01-.028-.016a.688.688 0 0 1-.129-.107c-.009-.009-.015-.02-.024-.029a.824.824 0 0 1-.083-.123c-.002-.007-.009-.012-.013-.02l-.004-.013c-.011-.023-.018-.047-.027-.072-.006-.02-.013-.039-.017-.059a.56.56 0 0 1-.009-.06c-.004-.026-.009-.05-.009-.076v-3.177a.681.681 0 1 1 1.364 0v2.078l1.084-.52zm17.48 10.794h4.259v-4.866h-4.26v4.866zm5.622-5.548v6.23a.683.683 0 0 1-.682.682H75.29a.683.683 0 0 1-.682-.682v-6.23c0-.377.306-.682.682-.682h5.623c.376 0 .682.305.682.682zm-14.79 5.548h4.256v-4.866h-4.257v4.866zm5.622-5.548v6.23a.683.683 0 0 1-.682.682h-5.623a.681.681 0 0 1-.681-.682v-6.23c0-.377.303-.682.681-.682h5.623c.376 0 .682.305.682.682zm3.545 17.24h4.26v-4.865h-4.26v4.865zm5.623-5.547v6.23a.683.683 0 0 1-.682.681H75.29a.683.683 0 0 1-.682-.682v-6.23c0-.376.306-.682.682-.682h5.623c.376 0 .682.306.682.683zm-14.79 5.547h4.256v-4.865h-4.257v4.865zm5.622-5.547v6.23a.683.683 0 0 1-.682.681h-5.623a.681.681 0 0 1-.681-.682v-6.23c0-.376.303-.682.681-.682h5.623c.376 0 .682.306.682.683zm-30.382-6.145h4.26v-4.866h-4.26v4.866zm5.624-5.548v6.23a.683.683 0 0 1-.682.682h-5.623a.681.681 0 0 1-.682-.682v-6.23c0-.377.304-.682.682-.682h5.623c.376 0 .682.305.682.682zM32.875 77.73h4.26v-4.866h-4.26v4.866zM38.5 72.18v6.23a.681.681 0 0 1-.682.682h-5.623a.683.683 0 0 1-.682-.682v-6.23c0-.377.306-.682.682-.682h5.623c.378 0 .682.305.682.682zm3.546 17.24h4.26v-4.865h-4.26v4.865zm5.624-5.547v6.23a.683.683 0 0 1-.682.681h-5.623a.681.681 0 0 1-.682-.682v-6.23c0-.376.304-.682.682-.682h5.623c.376 0 .682.306.682.683zM32.875 89.42h4.26v-4.865h-4.26v4.865zm5.624-5.547v6.23a.681.681 0 0 1-.682.681h-5.623a.683.683 0 0 1-.682-.682v-6.23c0-.376.306-.682.682-.682h5.623c.378 0 .682.306.682.683zM56.727 63.42a4.716 4.716 0 0 0-4.712 4.71 4.716 4.716 0 0 0 4.712 4.71 4.715 4.715 0 0 0 4.71-4.71 4.716 4.716 0 0 0-4.71-4.71zm6.074 4.71a6.081 6.081 0 0 1-6.074 6.075 6.082 6.082 0 0 1-6.075-6.075 6.082 6.082 0 0 1 6.075-6.074 6.081 6.081 0 0 1 6.074 6.074zm39.779-49.676l-19.643-7.851-19.584 8.002 19.643 7.85 19.584-8.001zm-7.566 11.514V23.02l-11.756 4.803a.682.682 0 0 1-.511.002l-11.786-4.711v6.854c0 2.997 5.507 5.529 12.026 5.529 6.517 0 12.027-2.532 12.027-5.53zm6.115 1.95l-1.163-3.497-1.064 3.506 2.227-.009zm1.593.463a.682.682 0 0 1-.645.898l-4.093.015h-.005a.682.682 0 0 1-.65-.88l1.925-6.347-.018-4.773-2.859 1.169v7.505c0 3.865-5.883 6.893-13.39 6.893-7.509 0-13.392-3.028-13.392-6.893v-7.4l-8.316-3.323a.68.68 0 0 1-.428-.63.68.68 0 0 1 .424-.635l21.4-8.744a.682.682 0 0 1 .511-.002l21.468 8.58a.68.68 0 0 1 .004 1.264l-4.06 1.66.02 5.326 2.104 6.317zm-34.528 74.21a.681.681 0 1 1 .293 1.333 54.699 54.699 0 0 1-5.448.908.685.685 0 0 1-.756-.6.684.684 0 0 1 .6-.755 53.394 53.394 0 0 0 5.311-.886zm-21.404.313a.681.681 0 1 1-.251 1.34 54.411 54.411 0 0 1-5.37-1.299.682.682 0 0 1 .39-1.308 53.07 53.07 0 0 0 5.231 1.267zm10.728.92a.682.682 0 0 1 .011 1.363c-.27.005-.54.013-.815.006-1.567 0-3.151-.068-4.705-.2a.68.68 0 1 1 .116-1.36c1.516.13 3.06.196 4.59.196.272.005.528-.002.792-.006h.011zm52.15-59.05a53.743 53.743 0 0 0-.849-5.317.68.68 0 1 1 1.333-.283c.38 1.792.673 3.627.872 5.453a.68.68 0 0 1-.68.756.684.684 0 0 1-.677-.608zm.993 4.69c.374 0 .678.302.682.677v.434c0 1.694-.076 3.404-.231 5.083a.682.682 0 0 1-1.36-.125 54.3 54.3 0 0 0 .228-4.958v-.424a.68.68 0 0 1 .675-.687h.006zm-3.907 21.319a.681.681 0 0 1 .365.892 54.292 54.292 0 0 1-2.391 4.978.681.681 0 1 1-1.198-.652 52.943 52.943 0 0 0 2.332-4.853.68.68 0 0 1 .892-.365zm3.033-10.46c.372.072.612.43.54.8a54.328 54.328 0 0 1-1.335 5.357.68.68 0 1 1-1.305-.396c.52-1.71.957-3.468 1.3-5.223a.682.682 0 0 1 .8-.539zm-8.119 20.092c.31.213.392.638.177.948a54.973 54.973 0 0 1-3.341 4.396.682.682 0 1 1-1.043-.88 54.277 54.277 0 0 0 3.259-4.286.682.682 0 0 1 .948-.178zM51.124 1.61a.683.683 0 0 1-.07-1.36c.89-.092 1.794-.163 2.69-.211a.683.683 0 0 1 .072 1.362c-.874.047-1.755.116-2.62.206a.797.797 0 0 1-.072.003zm8.08-.23a.683.683 0 0 1-.652-.714.689.689 0 0 1 .713-.65c1.837.085 3.686.263 5.498.53a.683.683 0 0 1-.201 1.35 53.634 53.634 0 0 0-5.359-.517zm10.638 1.57a.683.683 0 0 1 .334-1.322 54.35 54.35 0 0 1 5.28 1.627.682.682 0 1 1-.467 1.281 53.372 53.372 0 0 0-5.147-1.586zM2.878 57.769l-.03.001a.683.683 0 0 1-.682-.65 56.274 56.274 0 0 1 .022-5.522.682.682 0 1 1 1.361.073 55.856 55.856 0 0 0-.02 5.386.682.682 0 0 1-.65.713zM6.69 72.847a52.407 52.407 0 0 0 2.102 4.958.683.683 0 0 1-1.228.595 54.345 54.345 0 0 1-2.157-5.085.682.682 0 1 1 1.283-.468zM4.045 62.418c.262 1.771.617 3.548 1.056 5.282a.68.68 0 0 1-.66.85.683.683 0 0 1-.662-.515c-.45-1.778-.816-3.6-1.082-5.417a.68.68 0 0 1 .575-.774.68.68 0 0 1 .773.574zm.676-22.207a.681.681 0 0 1 .485.832 53.218 53.218 0 0 0-1.097 5.272.682.682 0 0 1-1.347-.21c.282-1.816.66-3.634 1.126-5.407a.68.68 0 0 1 .833-.487zm9.723 46.745a.682.682 0 0 1-1.082.83 54.8 54.8 0 0 1-3.136-4.546.682.682 0 1 1 1.16-.717 53.52 53.52 0 0 0 3.058 4.433zm26.13-61.082c.274 0 .497.244.497.546 0 .301-.223.546-.497.546H27.363c-.275 0-.498-.245-.498-.546 0-.302.223-.546.498-.546h13.211zm0-1.967c.274 0 .497.195.497.437 0 .241-.223.437-.497.437H27.363c-.275 0-.498-.196-.498-.437 0-.242.223-.437.498-.437h13.211zm0-2.186c.274 0 .497.196.497.437 0 .242-.223.437-.497.437H27.363c-.275 0-.498-.195-.498-.437 0-.241.223-.437.498-.437h13.211zm0-2.185c.274 0 .497.196.497.437s-.223.437-.497.437H27.363c-.275 0-.498-.196-.498-.437s.223-.437.498-.437h13.211zm-17.477 6.338c.271 0 .49.244.49.546 0 .301-.219.546-.49.546H10.09c-.27 0-.489-.245-.489-.546 0-.302.22-.546.49-.546h13.007zm0-1.967c.271 0 .49.195.49.437 0 .241-.219.437-.49.437H10.09c-.27 0-.489-.196-.489-.437 0-.242.22-.437.49-.437h13.007zm0-2.186c.271 0 .49.196.49.437 0 .242-.219.437-.49.437H10.09c-.27 0-.489-.195-.489-.437 0-.241.22-.437.49-.437h13.007zm0-2.185c.271 0 .49.196.49.437s-.219.437-.49.437H10.09c-.27 0-.489-.196-.489-.437s.22-.437.49-.437h13.007zM9.658 16.695a.497.497 0 0 1-.495-.499c0-.275.223-.498.495-.498h2.832V8.233c0-.275.222-.499.494-.499.273 0 .495.224.495.499v7.465h2.953V12.33c0-.275.221-.498.494-.498.274 0 .495.223.495.498v3.367h2.952v-5.3c0-.275.222-.498.495-.498s.495.223.495.499v5.299h2.953V8.792c0-.275.221-.499.494-.499s.495.224.495.499v6.906h2.953v-5.3c0-.275.221-.498.495-.498.272 0 .494.223.494.499v5.299h2.952V12.33c0-.275.223-.498.495-.498.273 0 .494.223.494.498v3.367h2.954V8.233c0-.275.221-.499.494-.499.274 0 .495.224.495.499v7.465h3.663a.497.497 0 1 1 0 .997H9.658zM5.23 29.589h40.868V5.549H5.229v24.04zM46.971 4.952v25.016a.495.495 0 0 1-.495.495H4.633a.495.495 0 0 1-.496-.495V4.952c0-.274.221-.496.496-.496h41.843c.273 0 .495.222.495.496zM1.077 33.604c0 1.04.907 1.885 2.02 1.885H48.04c1.098 0 1.99-.833 1.99-1.857v-.11H1.078v.082zm1.967-1.174h45.238V6.12c0-1.52-1.247-2.756-2.78-2.756H5.824c-1.533 0-2.78 1.236-2.78 2.755v26.31zM.203 33.57v-.553c0-.29.235-.525.525-.525h1.418V6.032a3.765 3.765 0 0 1 3.759-3.761h39.517a3.764 3.764 0 0 1 3.758 3.762v26.459h1.389c.305 0 .554.249.554.554v.554a2.985 2.985 0 0 1-2.98 2.982H3.213a3.015 3.015 0 0 1-3.01-3.012z"/>
    </defs>
    <g fill="none" fill-rule="evenodd">
        <mask id="b" fill="#fff">
            <use xlink:href="#a"/>
        </mask>
        <path fill="#FFF" d="M-497.39 264.219h951.107v-316.67H-497.39z" mask="url(#b)"/>
    </g>
</svg>
